<svg width="53" height="46" viewBox="0 0 53 46" fill="none" xmlns="http://www.w3.org/2000/svg">
<rect width="53" height="46" fill="#1E1E1E"/>
<g id="Landing">
<rect width="1920" height="3465" transform="translate(-420 -37)" fill="white"/>
<g id="Rectangle 53">
<mask id="path-1-inside-1_426_33" fill="white">
<path d="M-420 -37H1500V83H-420V-37Z"/>
</mask>
<path d="M-420 -37H1500V83H-420V-37Z" fill="white"/>
<path d="M-420 83.5H-417V82.5H-420V83.5ZM-411 83.5H-405V82.5H-411V83.5ZM-399 83.5H-393V82.5H-399V83.5ZM-387 83.5H-381V82.5H-387V83.5ZM-375 83.5H-369V82.5H-375V83.5ZM-363 83.5H-357V82.5H-363V83.5ZM-351 83.5H-345V82.5H-351V83.5ZM-339 83.5H-333V82.5H-339V83.5ZM-327 83.5H-321V82.5H-327V83.5ZM-315 83.5H-309V82.5H-315V83.5ZM-303 83.5H-297V82.5H-303V83.5ZM-291 83.5H-285V82.5H-291V83.5ZM-279 83.5H-273V82.5H-279V83.5ZM-267 83.5H-261V82.5H-267V83.5ZM-255 83.5H-249V82.5H-255V83.5ZM-243 83.5H-237V82.5H-243V83.5ZM-231 83.5H-225V82.5H-231V83.5ZM-219 83.5H-213V82.5H-219V83.5ZM-207 83.5H-201V82.5H-207V83.5ZM-195 83.5H-189V82.5H-195V83.5ZM-183 83.5H-177V82.5H-183V83.5ZM-171 83.5H-165V82.5H-171V83.5ZM-159 83.5H-153V82.5H-159V83.5ZM-147 83.5H-141V82.5H-147V83.5ZM-135 83.5H-129V82.5H-135V83.5ZM-123 83.5H-117V82.5H-123V83.5ZM-111 83.5H-105V82.5H-111V83.5ZM-99 83.5H-93V82.5H-99V83.5ZM-87 83.5H-81V82.5H-87V83.5ZM-75 83.5H-69V82.5H-75V83.5ZM-63 83.5H-57V82.5H-63V83.5ZM-51 83.5H-45V82.5H-51V83.5ZM-39 83.5H-33V82.5H-39V83.5ZM-27 83.5H-21V82.5H-27V83.5ZM-15 83.5H-9V82.5H-15V83.5ZM-3 83.5H3V82.5H-3V83.5ZM9 83.5H15V82.5H9V83.5ZM21 83.5H27V82.5H21V83.5ZM33 83.5H39V82.5H33V83.5ZM45 83.5H51V82.5H45V83.5ZM57 83.5H63V82.5H57V83.5ZM69 83.5H75V82.5H69V83.5ZM81 83.5H87V82.5H81V83.5ZM93 83.5H99V82.5H93V83.5ZM105 83.5H111V82.5H105V83.5ZM117 83.5H123V82.5H117V83.5ZM129 83.5H135V82.5H129V83.5ZM141 83.5H147V82.5H141V83.5ZM153 83.5H159V82.5H153V83.5ZM165 83.5H171V82.5H165V83.5ZM177 83.5H183V82.5H177V83.5ZM189 83.5H195V82.5H189V83.5ZM201 83.5H207V82.5H201V83.5ZM213 83.5H219V82.5H213V83.5ZM225 83.5H231V82.5H225V83.5ZM237 83.5H243V82.5H237V83.5ZM249 83.5H255V82.5H249V83.5ZM261 83.5H267V82.5H261V83.5ZM273 83.5H279V82.5H273V83.5ZM285 83.5H291V82.5H285V83.5ZM297 83.5H303V82.5H297V83.5ZM309 83.5H315V82.5H309V83.5ZM321 83.5H327V82.5H321V83.5ZM333 83.5H339V82.5H333V83.5ZM345 83.5H351V82.5H345V83.5ZM357 83.5H363V82.5H357V83.5ZM369 83.5H375V82.5H369V83.5ZM381 83.5H387V82.5H381V83.5ZM393 83.5H399V82.5H393V83.5ZM405 83.5H411V82.5H405V83.5ZM417 83.5H423V82.5H417V83.5ZM429 83.5H435V82.5H429V83.5ZM441 83.5H447V82.5H441V83.5ZM453 83.5H459V82.5H453V83.5ZM465 83.5H471V82.5H465V83.5ZM477 83.5H483V82.5H477V83.5ZM489 83.5H495V82.5H489V83.5ZM501 83.5H507V82.5H501V83.5ZM513 83.5H519V82.5H513V83.5ZM525 83.5H531V82.5H525V83.5ZM537 83.5H543V82.5H537V83.5ZM549 83.5H555V82.5H549V83.5ZM561 83.5H567V82.5H561V83.5ZM573 83.5H579V82.5H573V83.5ZM585 83.5H591V82.5H585V83.5ZM597 83.5H603V82.5H597V83.5ZM609 83.5H615V82.5H609V83.5ZM621 83.5H627V82.5H621V83.5ZM633 83.5H639V82.5H633V83.5ZM645 83.5H651V82.5H645V83.5ZM657 83.5H663V82.5H657V83.5ZM669 83.5H675V82.5H669V83.5ZM681 83.5H687V82.5H681V83.5ZM693 83.5H699V82.5H693V83.5ZM705 83.5H711V82.5H705V83.5ZM717 83.5H723V82.5H717V83.5ZM729 83.5H735V82.5H729V83.5ZM741 83.5H747V82.5H741V83.5ZM753 83.5H759V82.5H753V83.5ZM765 83.5H771V82.5H765V83.5ZM777 83.5H783V82.5H777V83.5ZM789 83.5H795V82.5H789V83.5ZM801 83.5H807V82.5H801V83.5ZM813 83.5H819V82.5H813V83.5ZM825 83.5H831V82.5H825V83.5ZM837 83.5H843V82.5H837V83.5ZM849 83.5H855V82.5H849V83.5ZM861 83.5H867V82.5H861V83.5ZM873 83.5H879V82.5H873V83.5ZM885 83.5H891V82.5H885V83.5ZM897 83.5H903V82.5H897V83.5ZM909 83.5H915V82.5H909V83.5ZM921 83.5H927V82.5H921V83.5ZM933 83.5H939V82.5H933V83.5ZM945 83.5H951V82.5H945V83.5ZM957 83.5H963V82.5H957V83.5ZM969 83.5H975V82.5H969V83.5ZM981 83.5H987V82.5H981V83.5ZM993 83.5H999V82.5H993V83.5ZM1005 83.5H1011V82.5H1005V83.5ZM1017 83.5H1023V82.5H1017V83.5ZM1029 83.5H1035V82.5H1029V83.5ZM1041 83.5H1047V82.5H1041V83.5ZM1053 83.5H1059V82.5H1053V83.5ZM1065 83.5H1071V82.5H1065V83.5ZM1077 83.5H1083V82.5H1077V83.5ZM1089 83.5H1095V82.5H1089V83.5ZM1101 83.5H1107V82.5H1101V83.5ZM1113 83.5H1119V82.5H1113V83.5ZM1125 83.5H1131V82.5H1125V83.5ZM1137 83.5H1143V82.5H1137V83.5ZM1149 83.5H1155V82.5H1149V83.5ZM1161 83.5H1167V82.5H1161V83.5ZM1173 83.5H1179V82.5H1173V83.5ZM1185 83.5H1191V82.5H1185V83.5ZM1197 83.5H1203V82.5H1197V83.5ZM1209 83.5H1215V82.5H1209V83.5ZM1221 83.5H1227V82.5H1221V83.5ZM1233 83.5H1239V82.5H1233V83.5ZM1245 83.5H1251V82.5H1245V83.5ZM1257 83.5H1263V82.5H1257V83.5ZM1269 83.5H1275V82.5H1269V83.5ZM1281 83.5H1287V82.5H1281V83.5ZM1293 83.5H1299V82.5H1293V83.5ZM1305 83.5H1311V82.5H1305V83.5ZM1317 83.5H1323V82.5H1317V83.5ZM1329 83.5H1335V82.5H1329V83.5ZM1341 83.5H1347V82.5H1341V83.5ZM1353 83.5H1359V82.5H1353V83.5ZM1365 83.5H1371V82.5H1365V83.5ZM1377 83.5H1383V82.5H1377V83.5ZM1389 83.5H1395V82.5H1389V83.5ZM1401 83.5H1407V82.5H1401V83.5ZM1413 83.5H1419V82.5H1413V83.5ZM1425 83.5H1431V82.5H1425V83.5ZM1437 83.5H1443V82.5H1437V83.5ZM1449 83.5H1455V82.5H1449V83.5ZM1461 83.5H1467V82.5H1461V83.5ZM1473 83.5H1479V82.5H1473V83.5ZM1485 83.5H1491V82.5H1485V83.5ZM1497 83.5H1500V82.5H1497V83.5ZM-420 84H-417V82H-420V84ZM-411 84H-405V82H-411V84ZM-399 84H-393V82H-399V84ZM-387 84H-381V82H-387V84ZM-375 84H-369V82H-375V84ZM-363 84H-357V82H-363V84ZM-351 84H-345V82H-351V84ZM-339 84H-333V82H-339V84ZM-327 84H-321V82H-327V84ZM-315 84H-309V82H-315V84ZM-303 84H-297V82H-303V84ZM-291 84H-285V82H-291V84ZM-279 84H-273V82H-279V84ZM-267 84H-261V82H-267V84ZM-255 84H-249V82H-255V84ZM-243 84H-237V82H-243V84ZM-231 84H-225V82H-231V84ZM-219 84H-213V82H-219V84ZM-207 84H-201V82H-207V84ZM-195 84H-189V82H-195V84ZM-183 84H-177V82H-183V84ZM-171 84H-165V82H-171V84ZM-159 84H-153V82H-159V84ZM-147 84H-141V82H-147V84ZM-135 84H-129V82H-135V84ZM-123 84H-117V82H-123V84ZM-111 84H-105V82H-111V84ZM-99 84H-93V82H-99V84ZM-87 84H-81V82H-87V84ZM-75 84H-69V82H-75V84ZM-63 84H-57V82H-63V84ZM-51 84H-45V82H-51V84ZM-39 84H-33V82H-39V84ZM-27 84H-21V82H-27V84ZM-15 84H-9V82H-15V84ZM-3 84H3V82H-3V84ZM9 84H15V82H9V84ZM21 84H27V82H21V84ZM33 84H39V82H33V84ZM45 84H51V82H45V84ZM57 84H63V82H57V84ZM69 84H75V82H69V84ZM81 84H87V82H81V84ZM93 84H99V82H93V84ZM105 84H111V82H105V84ZM117 84H123V82H117V84ZM129 84H135V82H129V84ZM141 84H147V82H141V84ZM153 84H159V82H153V84ZM165 84H171V82H165V84ZM177 84H183V82H177V84ZM189 84H195V82H189V84ZM201 84H207V82H201V84ZM213 84H219V82H213V84ZM225 84H231V82H225V84ZM237 84H243V82H237V84ZM249 84H255V82H249V84ZM261 84H267V82H261V84ZM273 84H279V82H273V84ZM285 84H291V82H285V84ZM297 84H303V82H297V84ZM309 84H315V82H309V84ZM321 84H327V82H321V84ZM333 84H339V82H333V84ZM345 84H351V82H345V84ZM357 84H363V82H357V84ZM369 84H375V82H369V84ZM381 84H387V82H381V84ZM393 84H399V82H393V84ZM405 84H411V82H405V84ZM417 84H423V82H417V84ZM429 84H435V82H429V84ZM441 84H447V82H441V84ZM453 84H459V82H453V84ZM465 84H471V82H465V84ZM477 84H483V82H477V84ZM489 84H495V82H489V84ZM501 84H507V82H501V84ZM513 84H519V82H513V84ZM525 84H531V82H525V84ZM537 84H543V82H537V84ZM549 84H555V82H549V84ZM561 84H567V82H561V84ZM573 84H579V82H573V84ZM585 84H591V82H585V84ZM597 84H603V82H597V84ZM609 84H615V82H609V84ZM621 84H627V82H621V84ZM633 84H639V82H633V84ZM645 84H651V82H645V84ZM657 84H663V82H657V84ZM669 84H675V82H669V84ZM681 84H687V82H681V84ZM693 84H699V82H693V84ZM705 84H711V82H705V84ZM717 84H723V82H717V84ZM729 84H735V82H729V84ZM741 84H747V82H741V84ZM753 84H759V82H753V84ZM765 84H771V82H765V84ZM777 84H783V82H777V84ZM789 84H795V82H789V84ZM801 84H807V82H801V84ZM813 84H819V82H813V84ZM825 84H831V82H825V84ZM837 84H843V82H837V84ZM849 84H855V82H849V84ZM861 84H867V82H861V84ZM873 84H879V82H873V84ZM885 84H891V82H885V84ZM897 84H903V82H897V84ZM909 84H915V82H909V84ZM921 84H927V82H921V84ZM933 84H939V82H933V84ZM945 84H951V82H945V84ZM957 84H963V82H957V84ZM969 84H975V82H969V84ZM981 84H987V82H981V84ZM993 84H999V82H993V84ZM1005 84H1011V82H1005V84ZM1017 84H1023V82H1017V84ZM1029 84H1035V82H1029V84ZM1041 84H1047V82H1041V84ZM1053 84H1059V82H1053V84ZM1065 84H1071V82H1065V84ZM1077 84H1083V82H1077V84ZM1089 84H1095V82H1089V84ZM1101 84H1107V82H1101V84ZM1113 84H1119V82H1113V84ZM1125 84H1131V82H1125V84ZM1137 84H1143V82H1137V84ZM1149 84H1155V82H1149V84ZM1161 84H1167V82H1161V84ZM1173 84H1179V82H1173V84ZM1185 84H1191V82H1185V84ZM1197 84H1203V82H1197V84ZM1209 84H1215V82H1209V84ZM1221 84H1227V82H1221V84ZM1233 84H1239V82H1233V84ZM1245 84H1251V82H1245V84ZM1257 84H1263V82H1257V84ZM1269 84H1275V82H1269V84ZM1281 84H1287V82H1281V84ZM1293 84H1299V82H1293V84ZM1305 84H1311V82H1305V84ZM1317 84H1323V82H1317V84ZM1329 84H1335V82H1329V84ZM1341 84H1347V82H1341V84ZM1353 84H1359V82H1353V84ZM1365 84H1371V82H1365V84ZM1377 84H1383V82H1377V84ZM1389 84H1395V82H1389V84ZM1401 84H1407V82H1401V84ZM1413 84H1419V82H1413V84ZM1425 84H1431V82H1425V84ZM1437 84H1443V82H1437V84ZM1449 84H1455V82H1449V84ZM1461 84H1467V82H1461V84ZM1473 84H1479V82H1473V84ZM1485 84H1491V82H1485V84ZM1497 84H1500V82H1497V84Z" fill="black" fill-opacity="0.1" mask="url(#path-1-inside-1_426_33)"/>
</g>
<g id="Logo">
<path id="Intersect" fill-rule="evenodd" clip-rule="evenodd" d="M45.914 9.77088C47.5631 8.81881 49.6921 9.37668 50.4491 11.1239C52.0263 14.7642 52.9006 18.78 52.9006 23C52.9006 27.2199 52.0263 31.2357 50.4491 34.8761C49.6921 36.6233 47.563 37.1811 45.914 36.2291L28.1756 25.9878C25.8756 24.6599 25.8756 21.3401 28.1756 20.0122L45.914 9.77088Z" fill="#0073E6"/>
<path id="Rectangle 51" d="M0 23C0 10.2975 10.2975 0 23 0V0C35.7025 0 46 10.2975 46 23V23C46 35.7025 35.7025 46 23 46V46C10.2975 46 0 35.7025 0 23V23Z" fill="url(#paint0_linear_426_33)"/>
<g id="Rectangle 52 (Stroke)">
<path fill-rule="evenodd" clip-rule="evenodd" d="M11.5 23C11.5 29.3513 16.6487 34.5 23 34.5C29.3513 34.5 34.5 29.3513 34.5 23C34.5 16.6487 29.3513 11.5 23 11.5C16.6487 11.5 11.5 16.6487 11.5 23ZM23 5.75C13.4731 5.75 5.75 13.4731 5.75 23C5.75 32.5269 13.4731 40.25 23 40.25C32.5269 40.25 40.25 32.5269 40.25 23C40.25 13.4731 32.5269 5.75 23 5.75Z" fill="url(#paint1_linear_426_33)" style="mix-blend-mode:hard-light"/>
</g>
<path id="Intersect_2" fill-rule="evenodd" clip-rule="evenodd" d="M42.9225 11.498C44.8801 14.8814 46.0006 18.8098 46.0006 22.9999C46.0006 27.19 44.8801 31.1183 42.9225 34.5018L28.1756 25.9877C25.8756 24.6597 25.8756 21.34 28.1756 20.0121L42.9225 11.498Z" fill="url(#paint2_linear_426_33)"/>
</g>
<g id="Wrapper">
<mask id="path-7-outside-2_426_33" maskUnits="userSpaceOnUse" x="-41" y="-37" width="1162" height="3463" fill="black">
<rect fill="white" x="-41" y="-37" width="1162" height="3463"/>
<path d="M-40 -37H1120V3426H-40V-37Z"/>
</mask>
<path d="M1119 -37V3426H1121V-37H1119ZM-39 3426V-37H-41V3426H-39Z" fill="black" fill-opacity="0.1" mask="url(#path-7-outside-2_426_33)"/>
</g>
</g>
<defs>
<linearGradient id="paint0_linear_426_33" x1="42.55" y1="23" x2="17.25" y2="23" gradientUnits="userSpaceOnUse">
<stop stop-color="#11EFE3"/>
<stop offset="0.33" stop-color="#15E8E2"/>
<stop offset="0.74" stop-color="#1FD3E0"/>
<stop offset="1" stop-color="#21CFE0"/>
</linearGradient>
<linearGradient id="paint1_linear_426_33" x1="5.75" y1="23" x2="40.25" y2="23" gradientUnits="userSpaceOnUse">
<stop stop-color="#00299C"/>
<stop offset="1" stop-color="#0073E6"/>
</linearGradient>
<linearGradient id="paint2_linear_426_33" x1="26.4506" y1="22.9999" x2="53.4756" y2="22.9999" gradientUnits="userSpaceOnUse">
<stop stop-color="#00299C"/>
<stop offset="1" stop-color="#0073E6"/>
</linearGradient>
</defs>
</svg>
